<?xml version="1.0" encoding="UTF-8" standalone="no"?>
<svg
   version="1.1"
   id="svg15"
   width="16.031"
   height="16.240683"
   xmlns="http://www.w3.org/2000/svg"
   xmlns:svg="http://www.w3.org/2000/svg">
  <defs
     id="defs1" />
  <symbol
     id="discogs"
     fill-rule="evenodd"
     clip-rule="evenodd"
     stroke-linejoin="round"
     stroke-miterlimit="1.414"
     style="display:inline">
    <path
       d="m 5.0833604,11.066351 0.057116,-0.05712 0.5140477,-0.571164 0.028558,-0.02856 0.2855821,-0.31414 0.028558,0.02856 C 5.4260589,9.6098821 5.1119186,8.8388106 5.1119186,8.0106227 c 0,-1.6278177 1.3136774,-2.9414951 2.9414951,-2.9414951 0.5426059,0 1.0280954,0.142791 1.4564684,0.3998149 l 0.5997219,-1.0566536 0.02856,-0.057116 0.599722,-1.0852118 0.02856,-0.057116 0.599722,-1.0852118 0.02856,-0.057116 0.31414,-0.5711641 0.228466,-0.3998148 C 10.82356,0.47125666 9.5384403,0.1 8.1676465,0.1 H 7.9391809 C 3.5697756,0.1 0.0285582,3.6126592 0,7.9820645 v 0.085675 c 0,2.2846555 0.97097896,4.3408465 2.513122,5.7687565 l 0.3998149,-0.428373 0.3998148,-0.428373 0.057116,-0.05712 0.828188,-0.913863 0.057116,-0.05712 z"
       id="path7-0" />
    <path
       d="m 13.508031,2.32754 -0.771072,0.8281879 -0.05712,0.057116 -0.828188,0.9138626 -0.05712,0.057116 -0.828188,0.9138625 -0.05712,0.057116 -0.31414,0.3426985 -0.514048,0.5426059 c 0.48549,0.5140476 0.79963,1.256561 0.79963,2.0276325 0,1.6278177 -1.3136775,2.9414951 -2.9414951,2.9414951 -0.4854895,0 -0.9424208,-0.114233 -1.3707938,-0.342698 l -0.5997223,1.056653 -0.828188,1.485027 -0.428373,0.771071 -0.028558,0.05712 -0.5711641,0.999537 c 1.1423281,0.628281 2.4274474,0.970979 3.8267994,0.970979 4.3979629,0 7.9391809,-3.569776 7.9391809,-7.9391811 0.05713,-2.2846582 -0.885294,-4.2837325 -2.37032,-5.7402009"
       id="path8-7" />
    <path
       d="m 7.9962973,7.4680168 c -0.3141403,0 -0.5711641,0.2570238 -0.5711641,0.5711641 0,0.3141402 0.2570238,0.5711641 0.5711641,0.5711641 0.3141402,0 0.5711641,-0.2570239 0.5711641,-0.5711641 C 8.5389032,7.7250406 8.3104375,7.4680168 7.9962973,7.4680168"
       id="path9-6" />
  </symbol>
  <symbol
     id="dribbble"
     fill-rule="evenodd"
     clip-rule="evenodd"
     stroke-linejoin="round"
     stroke-miterlimit="1.414">
    <path
       d="M 8,16 C 3.59,16 0,12.41 0,8 0,3.59 3.59,0 8,0 c 4.41,0 8,3.59 8,8 0,4.41 -3.59,8 -8,8 z M 14.747,9.095 C 14.513,9.021 12.632,8.46 10.49,8.803 c 0.894,2.456 1.258,4.456 1.328,4.872 1.533,-1.037 2.624,-2.68 2.93,-4.58 z M 10.67,14.3 C 10.568,13.7 10.17,11.612 9.21,9.12 L 9.166,9.134 C 5.312,10.477 3.93,13.15 3.806,13.4 4.964,14.305 6.42,14.844 8,14.844 c 0.947,0 1.85,-0.194 2.67,-0.543 z M 2.923,12.58 C 3.078,12.314 4.953,9.21 8.478,8.07 8.568,8.04 8.658,8.014 8.748,7.99 8.575,7.6 8.388,7.212 8.193,6.83 4.78,7.85 1.47,7.807 1.17,7.8 L 1.167,8.008 c 0,1.755 0.665,3.358 1.756,4.57 z M 1.31,6.61 C 1.617,6.615 4.432,6.627 7.628,5.778 6.496,3.766 5.275,2.073 5.095,1.826 3.183,2.728 1.755,4.49 1.311,6.611 Z M 6.4,1.368 c 0.188,0.253 1.43,1.943 2.548,4 C 11.378,4.458 12.408,3.075 12.53,2.9 11.323,1.827 9.736,1.176 8,1.176 7.45,1.176 6.913,1.242 6.4,1.366 Z M 13.29,3.69 C 13.145,3.884 12,5.352 9.474,6.384 c 0.16,0.325 0.31,0.656 0.453,0.99 0.05,0.117 0.1,0.235 0.147,0.352 2.274,-0.286 4.533,0.172 4.758,0.22 -0.015,-1.613 -0.59,-3.094 -1.543,-4.257 z"
       id="path1" />
  </symbol>
  <symbol
     id="facebook"
     fill-rule="evenodd"
     clip-rule="evenodd"
     stroke-linejoin="round"
     stroke-miterlimit="1.414">
    <path
       d="M 15.117,0 H 0.883 C 0.395,0 0,0.395 0,0.883 V 15.117 C 0,15.605 0.395,16 0.883,16 H 8.546 V 9.804 H 6.46 V 7.39 H 8.546 V 5.607 c 0,-2.066 1.262,-3.19 3.106,-3.19 0.883,0 1.642,0.064 1.863,0.094 v 2.16 h -1.28 c -1,0 -1.195,0.48 -1.195,1.18 v 1.54 h 2.39 l -0.31,2.42 H 11.04 V 16 h 4.077 C 15.605,16 16,15.605 16,15.117 V 0.883 C 16,0.395 15.605,0 15.117,0"
       fill-rule="nonzero"
       id="path2" />
  </symbol>
  <symbol
     id="flickr"
     fill-rule="evenodd"
     clip-rule="evenodd"
     stroke-linejoin="round"
     stroke-miterlimit="1.414">
    <path
       d="m 0,8 c 0,2.05 1.662,3.71 3.71,3.71 C 5.76,11.71 7.423,10.05 7.423,8 7.423,5.95 5.76,4.29 3.71,4.29 1.663,4.29 0,5.95 0,8 Z m 8.577,0 c 0,2.05 1.662,3.71 3.712,3.71 C 14.33,11.71 16,10.05 16,8 16,5.95 14.338,4.29 12.29,4.29 10.24,4.29 8.577,5.95 8.577,8 Z"
       id="path3" />
  </symbol>
  <symbol
     id="github"
     fill-rule="evenodd"
     clip-rule="evenodd"
     stroke-linejoin="round"
     stroke-miterlimit="1.414">
    <path
       d="M 8,0 C 3.58,0 0,3.582 0,8 c 0,3.535 2.292,6.533 5.47,7.59 0.4,0.075 0.547,-0.172 0.547,-0.385 0,-0.19 -0.007,-0.693 -0.01,-1.36 -2.226,0.483 -2.695,-1.073 -2.695,-1.073 -0.364,-0.924 -0.89,-1.17 -0.89,-1.17 -0.725,-0.496 0.056,-0.486 0.056,-0.486 0.803,0.056 1.225,0.824 1.225,0.824 0.714,1.223 1.873,0.87 2.33,0.665 0.072,-0.517 0.278,-0.87 0.507,-1.07 -1.777,-0.2 -3.644,-0.888 -3.644,-3.953 0,-0.873 0.31,-1.587 0.823,-2.147 -0.09,-0.202 -0.36,-1.015 0.07,-2.117 0,0 0.67,-0.215 2.2,0.82 0.64,-0.178 1.32,-0.266 2,-0.27 0.68,0.004 1.36,0.092 2,0.27 1.52,-1.035 2.19,-0.82 2.19,-0.82 0.43,1.102 0.16,1.915 0.08,2.117 0.51,0.56 0.82,1.274 0.82,2.147 0,3.073 -1.87,3.75 -3.65,3.947 0.28,0.24 0.54,0.73 0.54,1.48 0,1.07 -0.01,1.93 -0.01,2.19 0,0.21 0.14,0.46 0.55,0.38 C 13.71,14.53 16,11.53 16,8 16,3.582 12.418,0 8,0"
       id="path4" />
  </symbol>
  <symbol
     id="googleplus"
     fill-rule="evenodd"
     clip-rule="evenodd"
     stroke-linejoin="round"
     stroke-miterlimit="1.414">
    <path
       d="M 5.09,7.273 V 9.018 H 7.98 C 7.864,9.768 7.107,11.215 5.093,11.215 3.356,11.215 1.938,9.775 1.938,8 c 0,-1.775 1.415,-3.215 3.152,-3.215 0.99,0 1.652,0.422 2.03,0.786 L 8.502,4.241 C 7.615,3.411 6.465,2.911 5.092,2.911 2.275,2.91 0,5.19 0,8 c 0,2.81 2.276,5.09 5.09,5.09 2.94,0 4.888,-2.065 4.888,-4.974 0,-0.334 -0.036,-0.59 -0.08,-0.843 z m 10.91,0 H 14.545 V 5.818 H 13.09 v 1.455 h -1.454 v 1.454 h 1.455 v 1.455 h 1.46 V 8.727 H 16"
       id="path5" />
  </symbol>
  <symbol
     id="instagram"
     fill-rule="evenodd"
     clip-rule="evenodd"
     stroke-linejoin="round"
     stroke-miterlimit="1.414">
    <path
       d="M 8,0 C 5.827,0 5.555,0.01 4.702,0.048 3.85,0.088 3.27,0.222 2.76,0.42 2.234,0.624 1.787,0.898 1.343,1.343 0.898,1.787 0.623,2.233 0.42,2.76 0.222,3.27 0.087,3.85 0.048,4.702 0.008,5.555 0,5.827 0,8 c 0,2.173 0.01,2.445 0.048,3.298 0.04,0.852 0.174,1.433 0.372,1.942 0.204,0.526 0.478,0.973 0.923,1.417 0.444,0.445 0.89,0.72 1.417,0.923 0.51,0.198 1.09,0.333 1.942,0.372 C 5.555,15.992 5.827,16 8,16 c 2.173,0 2.445,-0.01 3.298,-0.048 0.852,-0.04 1.433,-0.174 1.942,-0.372 0.526,-0.204 0.973,-0.478 1.417,-0.923 0.445,-0.444 0.72,-0.89 0.923,-1.417 0.198,-0.51 0.333,-1.09 0.372,-1.942 C 15.992,10.445 16,10.173 16,8 16,5.827 15.99,5.555 15.952,4.702 15.912,3.85 15.778,3.269 15.58,2.76 15.376,2.234 15.102,1.787 14.657,1.343 14.213,0.898 13.767,0.623 13.24,0.42 12.73,0.222 12.15,0.087 11.298,0.048 10.445,0.008 10.173,0 8,0 Z m 0,1.44 c 2.136,0 2.39,0.01 3.233,0.048 0.78,0.036 1.203,0.166 1.485,0.276 0.374,0.145 0.64,0.318 0.92,0.598 0.28,0.28 0.453,0.546 0.598,0.92 0.11,0.282 0.24,0.705 0.276,1.485 0.038,0.844 0.047,1.097 0.047,3.233 0,2.136 -0.01,2.39 -0.05,3.233 -0.04,0.78 -0.17,1.203 -0.28,1.485 -0.15,0.374 -0.32,0.64 -0.6,0.92 -0.28,0.28 -0.55,0.453 -0.92,0.598 -0.28,0.11 -0.71,0.24 -1.49,0.276 -0.85,0.038 -1.1,0.047 -3.24,0.047 -2.14,0 -2.39,-0.01 -3.24,-0.05 -0.78,-0.04 -1.21,-0.17 -1.49,-0.28 -0.38,-0.15 -0.64,-0.32 -0.92,-0.6 -0.28,-0.28 -0.46,-0.55 -0.6,-0.92 -0.11,-0.28 -0.24,-0.71 -0.28,-1.49 -0.03,-0.84 -0.04,-1.1 -0.04,-3.23 0,-2.13 0.01,-2.39 0.04,-3.24 0.04,-0.78 0.17,-1.21 0.28,-1.49 0.14,-0.38 0.32,-0.64 0.6,-0.92 0.28,-0.28 0.54,-0.46 0.92,-0.6 0.28,-0.11 0.7,-0.24 1.48,-0.28 0.85,-0.03 1.1,-0.04 3.24,-0.04 z m 0,2.452 c -2.27,0 -4.108,1.84 -4.108,4.108 0,2.27 1.84,4.108 4.108,4.108 2.27,0 4.108,-1.84 4.108,-4.108 0,-2.27 -1.84,-4.108 -4.108,-4.108 z m 0,6.775 C 6.527,10.667 5.333,9.473 5.333,8 5.333,6.527 6.527,5.333 8,5.333 c 1.473,0 2.667,1.194 2.667,2.667 0,1.473 -1.194,2.667 -2.667,2.667 z M 13.23,3.73 c 0,0.53 -0.43,0.96 -0.96,0.96 -0.53,0 -0.96,-0.43 -0.96,-0.96 0,-0.53 0.43,-0.96 0.96,-0.96 0.53,0 0.96,0.43 0.96,0.96 z"
       id="path6" />
  </symbol>
  <symbol
     id="linkedin"
     fill-rule="evenodd"
     clip-rule="evenodd"
     stroke-linejoin="round"
     stroke-miterlimit="1.414">
    <path
       d="m 13.632,13.635 h -2.37 V 9.922 c 0,-0.886 -0.018,-2.025 -1.234,-2.025 -1.235,0 -1.424,0.964 -1.424,1.96 v 3.778 H 6.234 V 6 H 8.51 v 1.04 h 0.03 c 0.318,-0.6 1.092,-1.233 2.247,-1.233 2.4,0 2.845,1.58 2.845,3.637 v 4.188 z M 3.558,4.955 c -0.762,0 -1.376,-0.617 -1.376,-1.377 0,-0.758 0.614,-1.375 1.376,-1.375 0.76,0 1.376,0.617 1.376,1.375 0,0.76 -0.617,1.377 -1.376,1.377 z m 1.188,8.68 H 2.37 V 6 H 4.746 Z M 14.816,0 H 1.18 C 0.528,0 0,0.516 0,1.153 V 14.847 C 0,15.484 0.528,16 1.18,16 H 14.815 C 15.467,16 16,15.484 16,14.847 V 1.153 C 16,0.516 15.467,0 14.815,0 Z"
       fill-rule="nonzero"
       id="path7" />
  </symbol>
  <symbol
     id="pinterest"
     fill-rule="evenodd"
     clip-rule="evenodd"
     stroke-linejoin="round"
     stroke-miterlimit="1.414">
    <path
       d="M 8,0 C 3.582,0 0,3.582 0,8 0,11.39 2.108,14.285 5.084,15.45 5.014,14.817 4.951,13.846 5.112,13.155 5.258,12.53 6.05,9.178 6.05,9.178 c 0,0 -0.24,-0.48 -0.24,-1.188 0,-1.11 0.646,-1.943 1.448,-1.943 0.683,0 1.012,0.513 1.012,1.127 0,0.687 -0.436,1.713 -0.662,2.664 -0.19,0.797 0.4,1.445 1.185,1.445 1.42,0 2.514,-1.498 2.514,-3.662 0,-1.91 -1.376,-3.25 -3.342,-3.25 -2.276,0 -3.61,1.71 -3.61,3.47 0,0.69 0.263,1.43 0.593,1.83 0.066,0.08 0.075,0.15 0.057,0.23 -0.06,0.25 -0.196,0.8 -0.223,0.91 -0.035,0.15 -0.115,0.18 -0.268,0.11 C 3.516,10.46 2.89,9 2.89,7.82 2.89,5.3 4.724,2.98 8.177,2.98 c 2.774,0 4.932,1.98 4.932,4.62 0,2.76 -1.74,4.98 -4.16,4.98 -0.81,0 -1.57,-0.42 -1.84,-0.92 l -0.5,1.9 c -0.18,0.698 -0.67,1.57 -1,2.1 0.75,0.23 1.54,0.357 2.37,0.357 4.41,0 8,-3.58 8,-8 0,-4.42 -3.59,-8 -8,-8 z"
       fill-rule="nonzero"
       id="path8" />
  </symbol>
  <symbol
     id="rss"
     fill-rule="evenodd"
     clip-rule="evenodd"
     stroke-linejoin="round"
     stroke-miterlimit="1.414">
    <path
       d="M 12.8,16 C 12.8,8.978 7.022,3.2 0,3.2 V 0 C 8.777,0 16,7.223 16,16 Z M 2.194,11.61 c 1.21,0 2.195,0.985 2.195,2.196 0,1.21 -0.99,2.194 -2.2,2.194 C 0.98,16 0,15.017 0,13.806 0,12.596 0.983,11.611 2.194,11.611 Z M 10.606,16 H 7.496 C 7.496,11.887 4.113,8.503 0,8.503 v -3.11 c 5.818,0 10.606,4.79 10.606,10.607 z"
       id="path9" />
  </symbol>
  <symbol
     id="stackoverflow"
     class="svg-icon"
     fill-rule="evenodd"
     clip-rule="evenodd"
     stroke-linejoin="round"
     stroke-miterlimit="1.414">
    <path
       d="m 12.658,14.577 v -4.27 h 1.423 V 16 H 1.23 v -5.693 h 1.42 v 4.27 H 12.656 Z M 4.075,13.154 h 7.16 V 11.73 h -7.16 z m 0.173,-3.235 6.987,1.46 0.3,-1.38 L 4.55,8.54 4.248,9.92 Z m 0.906,-3.37 6.47,3.02 0.602,-1.3 -6.47,-3.02 -0.602,1.29 z m 1.81,-3.19 5.478,4.57 0.906,-1.08 L 7.87,2.28 6.97,3.358 Z M 10.502,0 9.338,0.863 13.608,6.598 14.772,5.736 10.5,0 Z"
       id="path10" />
  </symbol>
  <symbol
     id="twitter"
     fill-rule="evenodd"
     clip-rule="evenodd"
     stroke-linejoin="round"
     stroke-miterlimit="1.414">
    <path
       d="m 16,3.038 c -0.59,0.26 -1.22,0.437 -1.885,0.517 0.677,-0.407 1.198,-1.05 1.443,-1.816 -0.634,0.37 -1.337,0.64 -2.085,0.79 -0.598,-0.64 -1.45,-1.04 -2.396,-1.04 -1.812,0 -3.282,1.47 -3.282,3.28 0,0.26 0.03,0.51 0.085,0.75 C 5.152,5.389 2.733,4.079 1.114,2.099 0.83,2.58 0.67,3.14 0.67,3.75 0.67,4.89 1.25,5.893 2.13,6.482 1.592,6.465 1.085,6.317 0.643,6.072 v 0.04 c 0,1.59 1.13,2.918 2.633,3.22 C 3,9.406 2.71,9.446 2.411,9.446 c -0.21,0 -0.41,-0.02 -0.61,-0.058 0.42,1.304 1.63,2.253 3.07,2.28 -1.12,0.88 -2.54,1.404 -4.07,1.404 -0.26,0 -0.52,-0.015 -0.78,-0.045 1.46,0.93 3.18,1.474 5.04,1.474 6.04,0 9.34,-5 9.34,-9.33 0,-0.14 0,-0.28 -0.01,-0.42 0.64,-0.46 1.2,-1.04 1.64,-1.7 z"
       fill-rule="nonzero"
       id="path11" />
  </symbol>
  <symbol
     id="youtube"
     fill-rule="evenodd"
     clip-rule="evenodd"
     stroke-linejoin="round"
     stroke-miterlimit="1.414">
    <path
       d="m 0,7.345 c 0,-1.294 0.16,-2.59 0.16,-2.59 0,0 0.156,-1.1 0.636,-1.587 C 1.404,2.531 2.204,2.551 2.56,2.484 3.84,2.36 8,2.324 8,2.324 c 0,0 3.362,0.004 5.6,0.166 0.314,0.038 0.996,0.04 1.604,0.678 0.48,0.486 0.636,1.588 0.636,1.588 0,0 0.16,1.294 0.16,2.59 v 1.258 c 0,1.296 -0.16,2.59 -0.16,2.59 0,0 -0.156,1.102 -0.636,1.588 -0.608,0.638 -1.29,0.64 -1.604,0.678 -2.238,0.162 -5.6,0.166 -5.6,0.166 0,0 -4.16,-0.037 -5.44,-0.16 C 2.204,13.399 1.404,13.419 0.796,12.782 0.316,12.295 0.16,11.195 0.16,11.195 0.16,11.195 0,9.9 0,8.605 Z m 6.348,2.73 V 5.58 l 4.323,2.255 -4.32,2.24 z"
       id="path12" />
  </symbol>
  <symbol
     id="bluesky"
     fill-rule="evenodd"
     clip-rule="evenodd"
     stroke-linejoin="round"
     stroke-miterlimit="1.414">
    <path
       d="m 2.6158992,0.18174142 c -1.2254975,0 -2.22186503,0.99636788 -2.22186503,2.22186508 V 13.512932 c 0,1.225497 0.99636753,2.221865 2.22186503,2.221865 H 13.725224 c 1.225497,0 2.221865,-0.996368 2.221865,-2.221865 V 2.4036065 c 0,-1.2254972 -0.996368,-2.22186508 -2.221865,-2.22186508 z M 8.1705619,7.6597055 C 8.673953,6.6182063 10.04526,4.681018 11.319361,3.7263107 c 0.91999,-0.690861 2.405863,-1.2220262 2.405863,0.4756177 0,0.3402233 -0.194413,2.8502362 -0.308977,3.256421 -0.39577,1.4164393 -1.839983,1.7774918 -3.124498,1.5587777 2.246166,0.3818826 2.818991,1.6490399 1.583078,2.9161959 -2.343373,2.405865 -3.3675139,-0.604069 -3.6313603,-1.374777 0,0 0,0 0,0 l -0.010415,-0.03124 c -0.031246,-0.09027 -0.048603,-0.142338 -0.062489,-0.142338 -0.013887,0 -0.031244,0.05207 -0.062489,0.142338 -0.00348,0.01041 -0.00695,0.02084 -0.010414,0.03124 0,0 0,0 0,0 -0.2638492,0.770708 -1.2879903,3.77717 -3.6313634,1.374777 C 3.2338553,10.666167 3.8032084,9.3990097 6.0493751,9.0171271 4.7648595,9.2358412 3.320647,8.8747887 2.9248772,7.4583494 2.8103123,7.0521646 2.6158992,4.5421517 2.6158992,4.2019284 c 0,-1.6976439 1.4893439,-1.1630077 2.4058633,-0.4756177 1.2741006,0.9547073 2.6454078,2.8953676 3.1487994,3.9333948 z"
       id="path13"
       style="stroke-width:0.0347165" />
  </symbol>
  <symbol
     id="mastodon"
     fill-rule="evenodd"
     clip-rule="evenodd"
     stroke-linejoin="round"
     stroke-miterlimit="1.414">
    <path
       transform="scale(0.07)"
       d="m 211.80734,139.0875 c -3.18125,16.36625 -28.4925,34.2775 -57.5625,37.74875 -15.15875,1.80875 -30.08375,3.47125 -45.99875,2.74125 -26.0275,-1.1925 -46.565,-6.2125 -46.565,-6.2125 0,2.53375 0.15625,4.94625 0.46875,7.2025 3.38375,25.68625 25.47,27.225 46.39125,27.9425 21.11625,0.7225 39.91875,-5.20625 39.91875,-5.20625 l 0.8675,19.09 c 0,0 -14.77,7.93125 -41.08125,9.39 -14.50875,0.7975 -32.52375,-0.365 -53.50625,-5.91875 C 9.23234,213.82 1.40609,165.31125 0.20859,116.09125 -0.15641,101.4775 0.06859,87.6975 0.06859,76.1725 0.06859,25.8425 33.04484,11.09 33.04484,11.09 49.67234,3.45375 78.20359,0.2425 107.86484,0 h 0.72875 c 29.66125,0.2425 58.21125,3.45375 74.8375,11.09 0,0 32.975,14.7525 32.975,65.0825 0,0 0.41375,37.13375 -4.59875,62.915"
       id="path14" />
    <path
       transform="scale(0.07)"
       fill="#ffffff"
       d="m 177.50984,80.077 v 60.94125 h -24.14375 v -59.15 c 0,-12.46875 -5.24625,-18.7975 -15.74,-18.7975 -11.6025,0 -17.4175,7.5075 -17.4175,22.3525 V 117.7995 H 96.20734 V 85.42325 c 0,-14.845 -5.81625,-22.3525 -17.41875,-22.3525 -10.49375,0 -15.74,6.32875 -15.74,18.7975 v 59.15 H 38.90484 V 80.077 c 0,-12.455 3.17125,-22.3525 9.54125,-29.675 6.56875,-7.3225 15.17125,-11.07625 25.85,-11.07625 12.355,0 21.71125,4.74875 27.8975,14.2475 l 6.01375,10.08125 6.015,-10.08125 c 6.185,-9.49875 15.54125,-14.2475 27.8975,-14.2475 10.6775,0 19.28,3.75375 25.85,11.07625 6.36875,7.3225 9.54,17.22 9.54,29.675"
       id="path15" />
  </symbol>
</svg>
